<svg xmlns="http://www.w3.org/2000/svg" viewBox="0 0 372.98 382.27"><g id="Layer_2" data-name="Layer 2"><g id="Layer_1-2" data-name="Layer 1"><path d="M299,0a29.64,29.64,0,0,0,2.42,3.13q34.17,34.16,68.37,68.28c.95.94,1.83,2,3.15,3.37L298.29,88.31V0Z"/><path d="M0,13.9c7.6-.62,14.26-1.19,20.94-1.7C48.46,10.08,76,7.94,103.51,6a7.39,7.39,0,0,1,5.15,1.91q91.2,91.5,182.23,183.18c.53.52,1,1.08,1.13,1.19l-57.4,57.3Z"/><path d="M118.31,166.61c33.61,32.94,67.42,66.07,101,99L102.42,382.27C107.74,310,113.06,237.87,118.31,166.61Z"/><path d="M275.46,1.62V141.83L204.39,72.55Z"/></g></g></svg>