<svg xmlns="http://www.w3.org/2000/svg" viewBox="0 0 408.97 409.44"><defs><style>.cls-1{fill:#2f2f2f;}.cls-2{fill:#dcb101;}.cls-3{fill:#434244;}.cls-4{fill:#edbe00;}.cls-5{fill:#fdd944;}.cls-6{fill:#caa300;}.cls-7{fill:#3d3c42;}.cls-8{fill:#76757d;}.cls-9{fill:#fdcd00;}.cls-10{fill:#c9a300;}.cls-11{fill:#c9a200;}.cls-12{fill:#fad642;}.cls-13{fill:#010101;}.cls-14{fill:#030303;}.cls-15{fill:#fefefe;}.cls-16{fill:#fefefd;}.cls-17{fill:#facb00;}</style></defs><g id="Layer_2" data-name="Layer 2"><g id="Layer_1-2" data-name="Layer 1"><path class="cls-1" d="M409,92a16.36,16.36,0,0,1,0-11.19Z"/><path d="M409,69.57c-.88-3.73-.54-7.61-1.49-11.35C400.7,31.61,378.75,22,355.22,23.27a131.48,131.48,0,0,0-23.91,3.9c-2.53.62-3.31,0-3-2.73.81-6.88.24-13.8.34-20.71A5,5,0,0,0,327.56,0H81.73a4.73,4.73,0,0,0-1.08,3.34c0,6.66-.28,13.33.15,20,.29,4.51.4,4.55-4.1,3.55-11-2.45-22-4.33-33.52-3.33C17.55,25.78,1.71,44.09.31,68.42c-.52,9-.28,18.07-.06,27.12A143.18,143.18,0,0,0,6.9,134a147.55,147.55,0,0,0,42.16,67.19c16.72,15.29,35.69,26.27,58,31.16,10.1,2.21,20.29,2.48,30.54,2.29,2.44,0,4.79.11,6.67,2,6.32,6.37,13.64,11.44,21.12,16.31a25.17,25.17,0,0,1,8.66,9.23c1.4,2.59,1.4,4.66-1.54,6.34a20.53,20.53,0,0,0-7.25,7.3c-6.13,10.13-3.23,22.23,7.21,28.83,3,1.91,4.16,4,4,7.47-.22,4.26,0,8.53-.06,12.79,0,4.78-.27,5-4.92,5.05-6.78,0-13.57,0-20.35,0s-7.41.77-7.44,7.28c0,4.66,0,9.33,0,14,0,5.88,0,5.9-6.08,5.91-6.52,0-13,0-19.55,0-5.59,0-6.26.67-6.28,6.17q-.06,20.6,0,41.17c0,1.72-.19,3.5,1.1,4.94H296.43c1.2-1.31,1.1-2.94,1.1-4.53,0-14,.05-28,0-42,0-5-.76-5.73-5.84-5.78-7.18-.07-14.36,0-21.53,0-4.18,0-4.49-.37-4.52-4.63-.05-5.33,0-10.66,0-16-.06-5.54-1-6.49-6.57-6.54q-11.16-.11-22.33,0c-2.7,0-3.86-1-3.82-3.76.07-5.33.06-10.66,0-16a5,5,0,0,1,2.82-4.83c14.23-7.82,16.07-27.17.9-37-2.67-1.73-2.72-3.61-1.44-6.05a25.35,25.35,0,0,1,9.23-9.74c5.33-3.3,10.94-6.45,15-11.1,5.59-6.34,12.22-7.2,20-7,20.75.56,40.05-5.19,57.61-16,37.33-23,59.91-56.5,69.18-99.27,1.72-8,1.8-16,2.74-24.07V92a31,31,0,0,1,0-11.19ZM68.23,167C50.38,146.32,41.4,121.74,37,95.19c-1.13-6.84-2.14-13.65-.21-20.55a14.61,14.61,0,0,1,11-10.87C57.3,61.2,66.57,63,75.74,65.28c9.74,2.41,9.63,2.58,10.9,12.27,4.2,32,10.31,63.49,21.27,93.91,2.72,7.55,5.87,14.95,8.9,22.6C96.41,192.25,81.05,181.76,68.23,167Zm305.21-82.2c-2.13,26.07-9.69,50.61-24.68,72.29-11.41,16.5-25.58,29.85-45.7,35.21-1.67.44-3.36.81-5.05,1.1s-3.63.52-5.87.83a280.38,280.38,0,0,0,13.06-33.63c9.32-29.22,14.53-59.3,18.24-89.67.18-1.45,0-2.8,2-3.38,9.68-2.93,19.47-5.47,29.68-4.81C369.42,63.61,374.55,71.17,373.44,84.75Z"/><path class="cls-2" d="M200.72,259.9c3.91-7.45,10.33-12.09,17.29-16.48,14-8.81,24.1-21.41,32.46-35.44,15-25.23,23.65-52.85,30.16-81.31,3.63-15.87,6.18-31.92,8.42-48,1.62-11.63,3-23.34,3.49-35.12.14-3.55.88-7.1.69-10.69,6.37,0,12.75-.08,19.12-.17,1.61,0,2.2.26,2.06,2.23-2.77,40.94-8.23,81.43-20.37,120.78-7.29,23.66-17.26,46-33.06,65.33a78,78,0,0,1-21.47,18.83c-9.68,5.55-16.49,13.27-19,24.36-.41,1.79-1.39,2.24-3.11,2.2-6.11-.14-12.22-.14-18.33-.19C197.72,263.62,199.19,261.75,200.72,259.9Z"/><path class="cls-3" d="M204.24,397.41c-25.13,0-50.27-.05-75.4.06-3,0-4.25-.64-4.12-4,.27-6.52.19-13.06,0-19.58-.06-2.64.54-3.73,3.48-3.73q76.41.12,152.81,0c3,0,3.52,1.12,3.46,3.74-.14,6.53-.22,13.07.06,19.59.14,3.34-1.15,3.93-4.14,3.92C255,397.36,229.64,397.41,204.24,397.41Z"/><path class="cls-4" d="M338,39.33c11.86-3,23.81-4.18,35.76-.79,11.63,3.3,17.95,11.68,20.91,23,3,11.53,2.39,23.25,1.44,34.92-1.78,21.86-7.43,42.67-18.46,61.72-15.7,27.09-37.34,47.48-67.23,58.16A62.9,62.9,0,0,1,294.94,220c-4,.42-4.73-.27-3-3.45,2-3.79,3.32-8.1,6.93-10.89,34.35-6.58,55.05-29.66,70.18-59,9.72-18.87,14.45-39.31,16.57-60.38A39,39,0,0,0,384,70.44c-3.7-11.65-12.19-17.51-23.91-19.44-8.29-1.35-16.41-.06-24.57,1C334.37,47.4,335.61,43.26,338,39.33Z"/><path class="cls-4" d="M114.35,220c-16.95-2.41-31.94-9.42-45.54-19.62-27.38-20.55-44.4-47.88-52.09-81.08C12.89,102.73,11.13,85.84,13.25,69,15.33,52.37,21.88,40.6,41,37.25a66.35,66.35,0,0,1,24.16.66c2.08.41,4.13,1,6.2,1.42,2.36,3.93,3.59,8.07,2.43,12.68-7.24-.86-14.43-2.2-21.8-1.34-19.3,2.27-29.54,14.42-28.34,34a167.17,167.17,0,0,0,7.11,37.54c7.94,26.62,21.4,49.7,43.44,67.21a78.87,78.87,0,0,0,36.29,16.25c3.79,3.33,5.83,7.85,7.37,12.39C118.88,221.11,116.1,220.29,114.35,220Z"/><path class="cls-5" d="M200.72,259.9,199,266.23c-2.91,0-6.11.84-8.68-.09-2.74-1-2-4.81-3.1-7.28-3.12-7-7.45-13-14.14-16.8-21-11.85-34-30.6-44.13-51.53-14.48-29.77-21.9-61.7-27.3-94.17C98.31,76,96.43,55.51,95,35c-.13-1.85.19-2.33,1.93-2.28,4,.12,8,.13,12,.18.32,14.6,2.12,29.05,3.85,43.53,2.1,17.5,5.25,34.79,8.94,52,.17.8.23,1.58,1,2.09a1.41,1.41,0,0,1-.86,1.22c-4.42,2.12-4.24,2.08-3.06,6.93A274.61,274.61,0,0,0,132.76,181c1,2.45,2.14,4.88,3.37,7.24,1.64,3.15,2.92,6.9,7.8,5.14.87,2.68,1.7,5.38,4,7.27-3.43,3.63-1,6.39,1.43,9,2.22,2.41,3.48,6,7.46,6.34a98.68,98.68,0,0,0,32,30.41C194.12,249.6,198.58,253.8,200.72,259.9Z"/><path class="cls-6" d="M205,279c6.91,0,13.81-.05,20.71,0,4.9,0,8.36,3.37,8.26,7.75s-3.42,7.46-8.13,7.48q-21.1.09-42.21,0c-4.91,0-8.37-3.37-8.27-7.76s3.42-7.43,8.14-7.48C190.65,279,197.82,279,205,279Z"/><path class="cls-7" d="M251.74,343.86c1.76,4.21.66,8.57.46,12.83-.1,2.09-2.49,1.48-4,1.49q-20.09,0-40.18,0c-15.65,0-31.3-.08-46.95.06-3.31,0-4.66-1.05-4.25-4.34s-1-6.81.72-10.06c1,6.08,5.35,6.05,10.25,6q36.84-.25,73.7,0C246.39,349.91,250.7,349.94,251.74,343.86Z"/><path class="cls-8" d="M251.74,343.86c.07,7.17.07,7.17-7.09,7.17h-80c-7.15,0-7.15,0-7.09-7.17h0a118.33,118.33,0,0,1,20-.07h54.18a118.2,118.2,0,0,1,20,.07Z"/><path class="cls-2" d="M93.89,12.7c1-1.36,2.46-.63,3.66-.63q107.05,0,214.11,0c2.1,0,4.47-.53,3.87,3-.42,2.5.94,5.51-3.88,5.5q-107.26-.15-214.51,0c-.91,0-1.88.25-2.67-.45,2.28-2.26,5.18-1.22,7.83-1.42a41.23,41.23,0,0,1,5.88.06,44.81,44.81,0,0,1,4.78-.12H285.18a42.63,42.63,0,0,0,4.38-.09c1.37-.15,2.77-.34,2.83-2.14s-1.28-2.11-2.67-2.26a44.86,44.86,0,0,0-4.78-.1H113.51c-2,0-4,0-6-.13-3.23.18-6.47.11-9.71,0C96.4,14,95,13.89,93.89,12.7Z"/><path class="cls-9" d="M219.08,315.06c.08,4.65.1,9.29.25,13.93.06,1.8-.69,2.25-2.35,2.24q-12.33-.09-24.67,0c-1.65,0-2.41-.44-2.35-2.24.16-4.64.18-9.28.25-13.93a6.12,6.12,0,0,1,4.1-1.24q10.33-.1,20.68,0A6.08,6.08,0,0,1,219.08,315.06Z"/><path class="cls-2" d="M219.08,315.06H190.21c-.68-8.09-.68-8.09,7.32-8.09,5.93,0,11.88.23,17.8-.08,3.45-.18,4.46,1.06,4,4.23C219.12,312.42,219.15,313.75,219.08,315.06Z"/><path class="cls-10" d="M114.35,220c2.5.09,3.82-.43,2.14-3.26-2.14-3.62-4-7.38-6-11.08a9.11,9.11,0,0,0,2.35.26c11.82-1.76,14.92,7.61,19.7,15.63C126.21,221.47,120.24,221.38,114.35,220Z"/><path class="cls-10" d="M298.84,205.63c-2,3.7-3.9,7.46-6,11.07-1.68,2.84-.37,3.36,2.13,3.27-5.81,1.53-11.76,1.37-18.3,1.61,3-4.9,5.82-9.45,8.68-13.94.73-1.16,2.15-.89,3.28-1C292,206.23,295.42,206,298.84,205.63Z"/><path class="cls-11" d="M73.76,52,71.33,39.33c.76.17,1.53.32,2.29.51,10.3,2.56,10.26,2.57,10.3,12.94,0,1.57-.57,1.88-1.83,1.55C79.3,53.59,76.53,52.79,73.76,52Z"/><path class="cls-11" d="M338,39.33,335.54,52a3.32,3.32,0,0,1-1.05.52c-3,.26-6.35,2.88-8.59,1.39-1.24-.83.09-5.36,0-8.22-.05-2.2.72-3.47,2.89-4C331.87,41,334.92,40.13,338,39.33Z"/><path class="cls-12" d="M108.07,19.82l-13.61.35c-1.19-2.41-.49-5-.57-7.46l13.52.12C109.35,15,109.78,17.31,108.07,19.82Z"/><path class="cls-7" d="M177.56,343.79l-20,.07A61.91,61.91,0,0,1,177.56,343.79Z"/><path class="cls-7" d="M251.74,343.86l-20-.07A61.85,61.85,0,0,1,251.74,343.86Z"/><path d="M76,308.74a17.17,17.17,0,0,0,2.78,0c2.63-.43,3.28.85,3,3.15-.09.65.08,1.35,0,2-.56,3,.73,4.14,3.65,3.58,4.19-.79,5.75,1,5,5.08a4.27,4.27,0,0,0,0,.8c0,6.06,0,6.18-5.84,6.16-2.29,0-2.86.68-2.85,2.9,0,5.85-.11,5.85-6.14,5.85a15.88,15.88,0,0,0-2.39,0c-2.67.42-3.7-.42-3.58-3.36.21-5.25,0-5.37-5.48-5.28-2.28,0-3.57-.32-3.12-3a16.22,16.22,0,0,0,0-2.79c0-6.14,0-6.24,6-6.34,2,0,2.69-.57,2.72-2.69C69.76,308.74,69.87,308.74,76,308.74Z"/><path class="cls-13" d="M50.7,236.73a13.08,13.08,0,0,0,0,2c.49,3-.56,4-3.76,3.93-7.59-.24-7.38-.07-7.69-7.6-.15-3.73.71-5.46,4.63-4.66a1.7,1.7,0,0,0,.39,0C50.7,230.38,50.7,230.38,50.7,236.73Z"/><path class="cls-13" d="M112.86,272.37c0-6,0-6,6-6,5.45,0,5.45,0,5.45,5.77,0,6.37,0,6.37-6,6.37C112.86,278.5,112.86,278.5,112.86,272.37Z"/><path d="M321.86,260.34a20.11,20.11,0,0,0,0-2.8c-.34-2.46.61-3.14,3.08-3.13,6.89.05,7-.08,7.1-7.29,0-2.3.73-3.19,3-2.88a10.66,10.66,0,0,0,1.6,0c7.45,0,7.6,0,7.55,7.32,0,2.64.92,3,3.2,3,7.15,0,6.86.08,7.28,7.35.25,4.23-1.15,5.16-5.05,4.91-5.33-.33-5.61-.05-5.25,5.42.25,3.81-.79,5.47-4.69,4.71a1.79,1.79,0,0,0-.4,0c-7,0-7.12,0-7.05-6.91,0-2.73-.86-3.66-3.42-3.26a2.54,2.54,0,0,1-.39,0C321.86,266.69,321.86,266.69,321.86,260.34Z"/><path class="cls-14" d="M308.94,309.18c0,5.95,0,5.95-6.5,5.95-5.09,0-5.09,0-5.08-7.74,0-4.36,0-4.36,6.87-4.35C308.94,303,308.94,303,308.94,309.18Z"/><path class="cls-15" d="M143.93,193.42a10.79,10.79,0,0,0-2.13,1c-2,1.52-3,1-4.15-1.18-9.91-18.56-16.13-38.43-21.15-58.75-.53-2.13.25-2.55,1.9-2.91,1.41-.3,2.79-.76,4.18-1.15,5.27-.71,5.35-.74,6.67,4.69,4.42,18.13,10.25,35.74,19.1,52.22,1.25,2.33.56,3.23-1.43,4.15A25.43,25.43,0,0,0,143.93,193.42Z"/><path class="cls-16" d="M156.81,216.07c-1.14.74-2.13,2-3.5.08-2.7-3.7-5.77-7.14-8.36-10.91-2.33-3.4,2.3-2.8,3-4.55,5.94-3.59,6-3.66,10,2,1.7,2.42,5.54,4.26,4.82,7.18C162.12,212.27,158.88,214,156.81,216.07Z"/><path class="cls-17" d="M108.07,19.82a24.92,24.92,0,0,0-.66-7q91.17,0,182.33-.1c3.62,0,4.67,1.07,4.38,4.53-.18,2.12-.95,2.86-2.92,2.67-.4,0-.8,0-1.2,0H110.46C109.67,19.92,108.87,19.86,108.07,19.82Z"/><path class="cls-9" d="M108.82,32.86c.93,0,1.85-.16,2.78-.16H290.45c.93,0,1.85.1,2.78.16,1.42,1.56,1.16,3.5,1,5.32C290.92,78,285.93,117.57,274,155.93c-7.94,25.58-18.26,50-35.62,70.82a79.06,79.06,0,0,1-16,14.86c-7.78,5.33-15.8,10.27-21.07,18.43-1.86-.09-2.08-1.84-2.86-3A33.49,33.49,0,0,0,187.85,247a96.14,96.14,0,0,1-29.48-27c-.85-1.17-1.85-2.29-1.92-3.86a4.38,4.38,0,0,1,1.23-2c4.25-4.83,4.25-4.83.18-10.07-.17-.21-.32-.43-.48-.64-3.42-4.51-3.42-4.5-8.62-2.34a2.47,2.47,0,0,1-1.18.09c-2.85-1.81-4-4.51-4.12-7.77.94-2.13,3.21-2.61,4.71-3.69a214.65,214.65,0,0,1-15.3-37.27,167.52,167.52,0,0,1-4.59-16.91c-.6-3-1.71-4.93-5.16-4.39a2.28,2.28,0,0,1-1.47-.56c-1.36-1.47-1.42-3.4-1.82-5.19a547.33,547.33,0,0,1-11.47-78.84c-.22-3-.82-6.06-.67-9.13C107.77,35.8,107.64,34.17,108.82,32.86Z"/></g></g></svg>