<?xml version="1.0" encoding="utf-8"?>
<!-- Generator: Adobe Illustrator 24.1.2, SVG Export Plug-In . SVG Version: 6.00 Build 0)  -->
<svg version="1.1" id="Layer_1" xmlns="http://www.w3.org/2000/svg" xmlns:xlink="http://www.w3.org/1999/xlink" x="0px" y="0px"
	 viewBox="0 0 360.2 97.4" style="enable-background:new 0 0 360.2 97.4;" xml:space="preserve">
<style type="text/css">
	.st0{fill:#FFFFFF;}
</style>
<g id="Layer_2_1_">
	<g id="Layer_1-2">
		<path class="st0" d="M69.4,41.7H39.1c-0.8,0-1.4,0.6-1.4,1.4c0,0,0,0,0,0v14.8c0,0.8,0.6,1.4,1.4,1.4h11.8v18.4
			c0,0-2.7,0.9-10,0.9c-8.6,0-20.7-3.2-20.7-29.7s12.6-30.1,24.4-30.1c10.2,0,14.6,1.8,17.4,2.7c0.8,0.1,1.5-0.4,1.7-1.1
			c0-0.1,0-0.2,0-0.3l3.4-14.3c0-0.4-0.2-0.8-0.5-1.1C65.4,3.9,58.5,0,40.9,0C20.7,0,0,8.6,0,49.9s23.7,47.5,43.7,47.5
			c16.5,0,26.6-7.1,26.6-7.1c0.3-0.3,0.5-0.7,0.5-1.1V43.1C70.8,42.3,70.2,41.7,69.4,41.7L69.4,41.7z"/>
		<path class="st0" d="M225.4,5c0-0.8-0.6-1.4-1.3-1.5c0,0,0,0,0,0h-17c-0.8-0.1-1.4,0.5-1.5,1.3c0,0.1,0,0.1,0,0.2v32.9h-26.6V5
			c0-0.8-0.6-1.4-1.4-1.4c0,0,0,0,0,0h-17c-0.8,0-1.4,0.6-1.4,1.4c0,0,0,0,0,0.1v89.1c0,0.8,0.6,1.4,1.4,1.4c0,0,0,0,0,0h17
			c0.8,0,1.4-0.6,1.4-1.4c0,0,0,0,0,0V56h26.6v38.2c0,0.8,0.6,1.4,1.4,1.4c0,0,0,0,0,0H224c0.8,0,1.4-0.6,1.4-1.4L225.4,5z"/>
		<path class="st0" d="M101.5,16.6c-0.1-6.1-5-11-11.1-10.9c-6.1,0.1-11,5-10.9,11.1c0.1,6,5,10.9,11,10.9c6.1,0,11-4.9,11-11
			C101.5,16.7,101.5,16.7,101.5,16.6z"/>
		<path class="st0" d="M100.3,75.3V34.2c0-0.8-0.6-1.4-1.4-1.4h-17c-0.8,0.1-1.5,0.8-1.5,1.6v59c0,1.7,1.1,2.3,2.5,2.3h15.3
			c1.7,0,2.1-0.8,2.1-2.3L100.3,75.3z"/>
		<path class="st0" d="M290.1,32.9h-16.9c-0.8,0-1.4,0.6-1.4,1.4c0,0,0,0,0,0V78c-3.1,2-6.7,3.1-10.4,3.1c-6.1,0-7.7-2.8-7.7-8.7
			V34.3c0-0.8-0.6-1.4-1.4-1.4c0,0,0,0,0,0h-17.2c-0.8,0-1.4,0.6-1.4,1.4c0,0,0,0,0,0v41c0,17.7,9.9,22.1,23.5,22.1
			c11.1,0,20.1-6.2,20.1-6.2c0.1,1.2,0.3,2.4,0.6,3.6c0.3,0.5,0.7,0.7,1.2,0.8h10.9c0.8,0,1.4-0.6,1.4-1.4V34.3
			C291.5,33.5,290.9,32.9,290.1,32.9z"/>
		<path class="st0" d="M336.4,30.9c-5.7,0-11.2,1.4-16.1,4.3V5c0-0.8-0.6-1.4-1.4-1.4c0,0,0,0,0,0h-17.1c-0.8,0-1.4,0.6-1.4,1.4
			c0,0,0,0,0,0v89.1c0,0.8,0.6,1.4,1.4,1.4c0,0,0,0,0,0h11.9c0.5,0,1-0.3,1.2-0.8c0.3-1.4,0.6-2.7,0.7-4.1c0,0,7,6.6,20.2,6.6
			c15.5,0,24.4-7.9,24.4-35.4S346,30.9,336.4,30.9z M329.7,81.1c-3.5-0.1-6.9-1.1-9.9-2.8V50c2.7-1.5,5.7-2.5,8.7-2.8
			c6.1-0.5,12,1.3,12,15.8C340.5,78.3,337.9,81.4,329.7,81.1z"/>
		<path class="st0" d="M149.3,32.7h-12.8V15.8c0-0.6-0.3-1-1.1-1H118c-0.7,0-1,0.3-1,0.9v17.5c0,0-8.7,2.1-9.3,2.3
			c-0.6,0.2-1,0.7-1,1.4v11c0,0.7,0.6,1.3,1.3,1.4h9v26.4c0,19.6,13.8,21.5,23,21.5c3.4-0.1,6.9-0.7,10.1-1.7
			c0.5-0.2,0.8-0.7,0.8-1.3V82.2c0-0.8-0.6-1.4-1.4-1.4c-0.8,0-2.6,0.3-4.6,0.3c-6.3,0-8.4-2.9-8.4-6.7V49.3h12.8
			c0.8,0,1.4-0.6,1.4-1.4c0,0,0,0,0,0V34.2C150.7,33.4,150.1,32.7,149.3,32.7C149.3,32.7,149.3,32.7,149.3,32.7z"/>
	</g>
</g>
</svg>
